<svg width="279" height="54" viewBox="0 0 279 54" fill="none" xmlns="http://www.w3.org/2000/svg">
<path d="M31.8073 0C59.269 0 64.6698 20.25 63.9375 30.375H32.0133H0.0891391C-0.78048 20.25 4.34569 0 31.8073 0Z" fill="white"/>
<rect y="32.9062" width="64" height="6.75" fill="white"/>
<path d="M0 50.1875C0 45.7692 3.58172 42.1875 8 42.1875H56C60.4183 42.1875 64 45.7692 64 50.1875V54H0V50.1875Z" fill="white"/>
<path d="M102.912 38V31.736H97.08V38H91.776V21.488H97.08V27.512H102.912V21.488H108.216V38H102.912ZM122.832 38L122.136 35.672H116.352L115.656 38H110.232L116.256 21.488H122.424L128.448 38H122.832ZM117.456 31.976H121.032L119.304 26.096H119.208L117.456 31.976ZM144.632 38V32.048C144.632 31.312 144.656 30.56 144.704 29.792C144.768 29.008 144.832 28.352 144.896 27.824C144.96 27.296 145 26.96 145.016 26.816H144.92L141.872 38H137.72L134.648 26.84H134.552C134.568 26.984 134.608 27.32 134.672 27.848C134.752 28.36 134.824 29.008 134.888 29.792C134.952 30.56 134.984 31.312 134.984 32.048V38H130.112V21.488H137.6L140.096 31.016H140.192L142.664 21.488H149.888V38H144.632ZM158.776 21.2C159.992 21.2 161.064 21.4 161.992 21.8C162.92 22.2 163.64 22.776 164.152 23.528C164.664 24.264 164.92 25.12 164.92 26.096C164.92 26.72 164.784 27.28 164.512 27.776C164.24 28.256 163.92 28.664 163.552 29C163.184 29.336 162.72 29.704 162.16 30.104C161.696 30.456 161.352 30.736 161.128 30.944C160.92 31.152 160.816 31.368 160.816 31.592V32.096H156.712V30.896C156.712 30.512 156.832 30.168 157.072 29.864C157.312 29.544 157.688 29.144 158.2 28.664C158.728 28.2 159.128 27.784 159.4 27.416C159.688 27.048 159.832 26.64 159.832 26.192C159.832 25.728 159.688 25.336 159.4 25.016C159.112 24.68 158.728 24.512 158.248 24.512C157.208 24.512 156.688 25.184 156.688 26.528C156.688 26.816 156.696 27.032 156.712 27.176H152.296C152.28 27.064 152.264 26.936 152.248 26.792C152.232 26.648 152.224 26.472 152.224 26.264C152.224 25.24 152.504 24.352 153.064 23.6C153.624 22.832 154.4 22.24 155.392 21.824C156.4 21.408 157.528 21.2 158.776 21.2ZM156.424 38V33.56H161.176V38H156.424ZM178.776 21.488C179.608 21.488 180.368 21.664 181.056 22.016C181.76 22.352 182.312 22.832 182.712 23.456C183.128 24.08 183.336 24.776 183.336 25.544C183.336 27.576 182.416 28.856 180.576 29.384V29.48C182.672 29.96 183.72 31.336 183.72 33.608C183.72 34.472 183.504 35.24 183.072 35.912C182.656 36.568 182.08 37.08 181.344 37.448C180.608 37.816 179.8 38 178.92 38H167.784V21.488H178.776ZM173.088 27.92H176.736C177.088 27.92 177.376 27.8 177.6 27.56C177.84 27.304 177.96 26.992 177.96 26.624V26.384C177.96 26.032 177.84 25.736 177.6 25.496C177.36 25.24 177.072 25.112 176.736 25.112H173.088V27.92ZM173.088 34.16H177.12C177.472 34.16 177.76 34.04 177.984 33.8C178.224 33.544 178.344 33.232 178.344 32.864V32.624C178.344 32.256 178.224 31.952 177.984 31.712C177.76 31.456 177.472 31.328 177.12 31.328H173.088V34.16ZM202.271 31.352C202.271 33.608 201.559 35.328 200.135 36.512C198.711 37.696 196.687 38.288 194.063 38.288C191.439 38.288 189.407 37.696 187.967 36.512C186.543 35.328 185.831 33.608 185.831 31.352V21.488H191.135V31.28C191.135 32.208 191.383 32.952 191.879 33.512C192.375 34.056 193.095 34.328 194.039 34.328C194.983 34.328 195.703 34.048 196.199 33.488C196.711 32.928 196.967 32.192 196.967 31.28V21.488H202.271V31.352ZM221.495 26.552C221.495 27.56 221.223 28.472 220.679 29.288C220.135 30.104 219.343 30.704 218.303 31.088L221.975 38H216.023L213.095 31.976H211.127V38H205.823V21.488H215.927C217.111 21.488 218.119 21.72 218.951 22.184C219.799 22.632 220.431 23.248 220.847 24.032C221.279 24.8 221.495 25.64 221.495 26.552ZM216.095 26.768C216.095 26.336 215.951 25.976 215.663 25.688C215.375 25.4 215.023 25.256 214.607 25.256H211.127V28.304H214.607C215.023 28.304 215.375 28.16 215.663 27.872C215.951 27.568 216.095 27.2 216.095 26.768ZM232.385 21.2C233.969 21.2 235.393 21.44 236.657 21.92C237.921 22.4 238.921 23.112 239.657 24.056C240.409 24.984 240.785 26.12 240.785 27.464H235.721C235.721 26.776 235.417 26.224 234.809 25.808C234.201 25.376 233.465 25.16 232.601 25.16C231.353 25.16 230.409 25.496 229.769 26.168C229.129 26.824 228.809 27.76 228.809 28.976V30.512C228.809 31.728 229.129 32.672 229.769 33.344C230.409 34 231.353 34.328 232.601 34.328C233.465 34.328 234.201 34.128 234.809 33.728C235.417 33.312 235.721 32.784 235.721 32.144H231.977V28.784H240.785V38H238.049L237.521 36.368C236.017 37.648 234.049 38.288 231.617 38.288C228.881 38.288 226.825 37.576 225.449 36.152C224.073 34.712 223.385 32.576 223.385 29.744C223.385 26.944 224.161 24.824 225.713 23.384C227.281 21.928 229.505 21.2 232.385 21.2ZM244.073 21.488H258.353V25.448H249.377V27.728H257.057V31.52H249.377V34.04H258.521V38H244.073V21.488ZM277.065 26.552C277.065 27.56 276.793 28.472 276.249 29.288C275.705 30.104 274.913 30.704 273.873 31.088L277.545 38H271.593L268.665 31.976H266.697V38H261.393V21.488H271.497C272.681 21.488 273.689 21.72 274.521 22.184C275.369 22.632 276.001 23.248 276.417 24.032C276.849 24.8 277.065 25.64 277.065 26.552ZM271.665 26.768C271.665 26.336 271.521 25.976 271.233 25.688C270.945 25.4 270.593 25.256 270.177 25.256H266.697V28.304H270.177C270.593 28.304 270.945 28.16 271.233 27.872C271.521 27.568 271.665 27.2 271.665 26.768Z" fill="white"/>
</svg>
